<?xml version="1.0" encoding="UTF-8" standalone="no"?>
<svg xmlns="http://www.w3.org/2000/svg" version="1.1" height="812.5" width="2000">
  <title>Sky Brasil</title>
  <g transform="translate(548.00597,-110.71358)">
    <path style="fill:#ff0000;fill-rule:evenodd;stroke:none;stroke-width:28.22200012;stroke-linejoin:round" d="m -413.76362,647.64865 c -44.78664,51.21305 -89.57329,102.42618 -134.24235,153.63923 165.15805,134.5668 385.56486,169.06204 569.64854,45.91516 25.15578,-16.83555 63.59469,-55.45141 91.80672,-104.42759 l -28.32961,153.28603 231.92665,0 53.95565,-292.20884 152.5801,292.20884 274.1272,0 9.0514,0 222.87532,0 54.7784,-296.32947 1.4107,0 366.1689,-465.74478 -261.1966,0 -175.3849,245.82282 -123.07522,-245.82282 -32.2087,0 -200.0706,0 -3.0563,0 -260.3738,331.64892 61.3613,-331.64892 -231.92676,0 -11.99008,64.98766 C 64.90101,96.431059 -186.42142,73.002543 -335.47518,183.66989 c -130.36321,96.89273 -146.70266,263.83563 -23.3925,353.07595 47.49031,34.3775 140.82524,56.86414 209.23946,75.1125 109.08664,29.07961 52.545,107.13539 -13.4007,117.61352 -102.26868,16.36461 -178.44126,-28.60867 -250.7347,-81.82321 z M 143.89484,578.18724 C 136.95937,551.9331 122.97085,525.67912 99.93101,500.83779 15.76507,410.067 -80.97884,425.84302 -172.08025,389.93497 c -63.35961,-25.07672 -31.85618,-84.17781 21.27656,-94.185 93.68758,-17.65969 181.73266,14.12773 264.1354,69.46149 l 90.98391,-113.96392 -60.42078,326.9397 z m 656.04804,305.98345 -200.1882,-351.07454 153.168,-192.01962 104.3846,232.99009 -57.3644,310.10407 z" />
  </g>
</svg>
